<svg width="200" height="200" viewBox="0 0 200 200" fill="none" xmlns="http://www.w3.org/2000/svg">
  <!-- Outer circle (nest) -->
  <circle cx="100" cy="100" r="90" fill="#6b8f71" opacity="0.1"/>
  
  <!-- Nest base -->
  <path d="M100 50 C80 55, 65 70, 60 90 C55 110, 55 130, 65 145 C75 160, 90 170, 100 170 C110 170, 125 160, 135 145 C145 130, 145 110, 140 90 C135 70, 120 55, 100 50 Z" fill="#6b8f71" opacity="0.2"/>
  
  <!-- Main leaf (stylized) -->
  <g transform="translate(100, 100)">
    <!-- Leaf shape -->
    <path d="M0,-60 Q-25,-40 -30,-10 Q-32,10 -25,25 Q-15,40 0,50 Q15,40 25,25 Q32,10 30,-10 Q25,-40 0,-60 Z" fill="#6b8f71"/>
    
    <!-- Leaf vein -->
    <path d="M0,-60 L0,50" stroke="#4a6b4f" stroke-width="2.5" stroke-linecap="round"/>
    
    <!-- Side veins -->
    <path d="M0,-40 Q-12,-25 -20,-5" stroke="#4a6b4f" stroke-width="1.5" stroke-linecap="round" opacity="0.7"/>
    <path d="M0,-40 Q12,-25 20,-5" stroke="#4a6b4f" stroke-width="1.5" stroke-linecap="round" opacity="0.7"/>
    <path d="M0,-20 Q-15,-10 -22,5" stroke="#4a6b4f" stroke-width="1.5" stroke-linecap="round" opacity="0.7"/>
    <path d="M0,-20 Q15,-10 22,5" stroke="#4a6b4f" stroke-width="1.5" stroke-linecap="round" opacity="0.7"/>
    <path d="M0,0 Q-12,10 -18,22" stroke="#4a6b4f" stroke-width="1.5" stroke-linecap="round" opacity="0.7"/>
    <path d="M0,0 Q12,10 18,22" stroke="#4a6b4f" stroke-width="1.5" stroke-linecap="round" opacity="0.7"/>
    
    <!-- Nest detail (small branches) -->
    <g transform="translate(0, 40)">
      <path d="M-20,0 Q-10,5 0,8" stroke="#8b7355" stroke-width="2" stroke-linecap="round" opacity="0.6"/>
      <path d="M20,0 Q10,5 0,8" stroke="#8b7355" stroke-width="2" stroke-linecap="round" opacity="0.6"/>
      <path d="M-15,8 Q-8,12 0,15" stroke="#8b7355" stroke-width="1.5" stroke-linecap="round" opacity="0.5"/>
      <path d="M15,8 Q8,12 0,15" stroke="#8b7355" stroke-width="1.5" stroke-linecap="round" opacity="0.5"/>
    </g>
    
    <!-- Accent dots (seeds/berries) -->
    <circle cx="-18" cy="-15" r="3" fill="#8fbc8f"/>
    <circle cx="18" cy="-15" r="3" fill="#8fbc8f"/>
    <circle cx="-15" cy="10" r="2.5" fill="#a8c5a0"/>
    <circle cx="15" cy="10" r="2.5" fill="#a8c5a0"/>
  </g>
  
  <!-- Decorative outer elements -->
  <g opacity="0.3">
    <path d="M40 100 Q35 95, 30 95" stroke="#6b8f71" stroke-width="2" stroke-linecap="round" fill="none"/>
    <path d="M160 100 Q165 95, 170 95" stroke="#6b8f71" stroke-width="2" stroke-linecap="round" fill="none"/>
    <circle cx="25" cy="95" r="2" fill="#6b8f71"/>
    <circle cx="175" cy="95" r="2" fill="#6b8f71"/>
  </g>
</svg>
